Coordinates
version=1
nRows=10
nColumns=46
inDegrees=yes

Units are S.I. units (second, meters, Newtons, ...)
Angles are in degrees.

endheader
time	pelvis_tilt	pelvis_list	pelvis_rotation	pelvis_tx	pelvis_ty	pelvis_tz	bb_angle	bb_tx	bb_ty	bb_tz	hip_flexion_r	hip_adduction_r	hip_rotation_r	knee_angle_r	knee_angle_r_beta	ankle_angle_r	subtalar_angle_r	mtp_angle_r	crank_angle_r	hip_flexion_l	hip_adduction_l	hip_rotation_l	knee_angle_l	knee_angle_l_beta	ankle_angle_l	subtalar_angle_l	mtp_angle_l	crank_angle_l	lumbar_extension	lumbar_bending	lumbar_rotation	arm_flex_r	arm_add_r	arm_rot_r	elbow_flex_r	pro_sup_r	wrist_flex_r	wrist_dev_r	arm_flex_l	arm_add_l	arm_rot_l	elbow_flex_l	pro_sup_l	wrist_flex_l	wrist_dev_l
      0.00000000	    -21.77021109	      0.24198195	      2.06730380	      0.12648652	      1.03463598	     -0.23797623	      0.00000000	      0.50000000	      0.00000000	      0.25000000	     55.10513525	     -7.55000625	     -1.32766547	     70.96905836	      1.23864374	     16.79599461	      1.97707847	      0.00000000	      0.00000000	     87.69102835	     -6.29741395	     -1.57209363	     76.99780535	      1.34386522	      3.05034999	     -4.73530385	      0.00000000	      0.00000000	    -50.39355123	     -1.62069051	     -3.27459442	     89.65638892	     -7.31380703	     26.20870422	     40.81571464	     27.12781869	      0.00000000	      0.00000000	     89.58572937	    -11.27932765	     26.34630553	     47.89644936	     27.83935105	      0.00000000	      0.00000000
      0.00500000	    -21.71086972	      0.28028540	      2.04855327	      0.12653938	      1.03476519	     -0.23795547	      0.00000000	      0.50000000	      0.00000000	      0.25000000	     55.04043989	     -7.56885384	     -1.29979532	     70.96911905	      1.23864479	     16.86153625	      2.10215118	      0.00000000	      0.00000000	     87.60666081	     -6.31850280	     -1.63525308	     76.98748396	      1.34368508	      3.03676959	     -4.82873982	      0.00000000	      0.00000000	    -50.51900059	     -1.66328103	     -3.37050136	     89.66006883	     -7.16440816	     25.86391562	     40.67286679	     28.28761199	      0.00000000	      0.00000000	     89.58022247	    -11.40493166	     26.12748019	     48.03436464	     29.06696775	      0.00000000	      0.00000000
      0.01000000	    -21.80476717	      0.24631512	      2.02808080	      0.12651053	      1.03457031	     -0.23786533	      0.00000000	      0.50000000	      0.00000000	      0.25000000	     55.14985844	     -7.50439361	     -1.30495762	     70.96886448	      1.23864035	     16.73904618	      1.82074478	      0.00000000	      0.00000000	     87.72438638	     -6.34903805	     -1.58922153	     76.99003982	      1.34372969	      3.01187783	     -4.76012270	      0.00000000	      0.00000000	    -50.35807079	     -1.64372639	     -3.33570670	     89.65879366	     -7.14052599	     25.95655169	     40.35291819	     29.31589022	      0.00000000	      0.00000000	     89.58434114	    -11.46324841	     26.36365786	     47.53961174	     30.11200411	      0.00000000	      0.00000000
      0.01500000	    -21.72263299	      0.27654564	      2.13267496	      0.12656204	      1.03476959	     -0.23746643	      0.00000000	      0.50000000	      0.00000000	      0.25000000	     55.03669300	     -7.55838818	     -1.34130697	     70.96579352	      1.23858675	     16.78904655	      1.83887327	      0.00000000	      0.00000000	     87.61919443	     -6.31664919	     -1.65011163	     76.95366650	      1.34309485	      2.99181389	     -4.68017446	      0.00000000	      0.00000000	    -50.48724163	     -1.65069494	     -3.44281126	     89.65822601	     -7.15137824	     25.82920364	     40.36339815	     29.78070448	      0.00000000	      0.00000000	     89.58493967	    -11.49572358	     26.21308491	     47.66234870	     30.58996611	      0.00000000	      0.00000000
      0.02000000	    -21.83616202	      0.27651869	      2.07325654	      0.12645651	      1.03475999	     -0.23740375	      0.00000000	      0.50000000	      0.00000000	      0.25000000	     55.18055989	     -7.51118139	     -1.28711338	     70.98504245	      1.23892271	     16.80367784	      1.77002053	      0.00000000	      0.00000000	     87.73821842	     -6.37112554	     -1.61656802	     76.96086914	      1.34322056	      2.98940359	     -4.64505739	      0.00000000	      0.00000000	    -50.31170312	     -1.69261215	     -3.43779709	     89.65591333	     -7.12278985	     26.03097619	     40.17969138	     29.83510428	      0.00000000	      0.00000000	     89.58634030	    -11.57271872	     26.41713837	     47.46006902	     30.65074849	      0.00000000	      0.00000000
      0.02500000	    -21.85347254	      0.27338062	      2.08005570	      0.12652908	      1.03481750	     -0.23735762	      0.00000000	      0.50000000	      0.00000000	      0.25000000	     55.18163197	     -7.51301472	     -1.29231674	     70.97797005	      1.23879927	     16.84347378	      1.81245293	      0.00000000	      0.00000000	     87.74495264	     -6.37202432	     -1.63232140	     76.93414974	      1.34275422	      2.98865709	     -4.67261116	      0.00000000	      0.00000000	    -50.31967596	     -1.69493687	     -3.41075149	     89.65650220	     -7.17956103	     25.97144558	     40.08604938	     30.70033469	      0.00000000	      0.00000000	     89.58342005	    -11.56910843	     26.35479076	     47.37512426	     31.51487634	      0.00000000	      0.00000000
      0.03000000	    -21.85080779	      0.24098380	      2.05517079	      0.12650710	      1.03479718	     -0.23734832	      0.00000000	      0.50000000	      0.00000000	      0.25000000	     55.18368503	     -7.46713821	     -1.30552655	     70.97546925	      1.23875563	     16.79608521	      1.69751496	      0.00000000	      0.00000000	     87.76725007	     -6.40210245	     -1.60368305	     76.96527421	      1.34329744	      2.95950539	     -4.70332924	      0.00000000	      0.00000000	    -50.31456972	     -1.68614932	     -3.39535567	     89.65667577	     -7.22227998	     25.99516635	     39.89487952	     31.82274336	      0.00000000	      0.00000000	     89.58509348	    -11.63738412	     26.38122143	     47.14986666	     32.72450209	      0.00000000	      0.00000000
      0.03500000	    -21.82031669	      0.22838263	      2.11892083	      0.12655090	      1.03488264	     -0.23748081	      0.00000000	      0.50000000	      0.00000000	      0.25000000	     55.12802143	     -7.53650389	     -1.36610838	     70.97519918	      1.23875091	     16.91787668	      1.95968856	      0.00000000	      0.00000000	     87.73348810	     -6.32376791	     -1.57766868	     76.94832059	      1.34300155	      2.96389544	     -4.69846519	      0.00000000	      0.00000000	    -50.38243163	     -1.62912258	     -3.46414462	     89.65502232	     -6.99565969	     25.32921401	     39.75652911	     32.82341929	      0.00000000	      0.00000000	     89.58140646	    -11.58068190	     25.97048828	     47.11661277	     33.80876768	      0.00000000	      0.00000000
      0.04000000	    -21.79261641	      0.23811645	      2.00541224	      0.12659467	      1.03490822	     -0.23729276	      0.00000000	      0.50000000	      0.00000000	      0.25000000	     55.11395158	     -7.42595509	     -1.28498365	     70.97130361	      1.23868292	     16.89681567	      1.70478834	      0.00000000	      0.00000000	     87.70710870	     -6.46235750	     -1.61395069	     77.00274109	      1.34395137	      2.95303535	     -4.74705280	      0.00000000	      0.00000000	    -50.53386075	     -1.71787681	     -3.37960825	     89.64488611	     -7.14997291	     25.00492712	     40.44697694	     33.14776080	      0.00000000	      0.00000000	     89.57108747	    -11.67493913	     25.56040044	     47.69006299	     34.11150072	      0.00000000	      0.00000000
      0.04500000	    -21.61178279	      0.24296856	      1.98198573	      0.12654653	      1.03526511	     -0.23756888	      0.00000000	      0.50000000	      0.00000000	      0.25000000	     54.90205928	     -7.44413922	     -1.27699920	     70.90347848	      1.23749915	     16.85930322	      1.95021178	      0.00000000	      0.00000000	     87.50603058	     -6.44854883	     -1.61420008	     76.99929846	      1.34389128	      3.01238234	     -4.78875043	      0.00000000	      0.00000000	    -50.71272593	     -1.69749234	     -3.34224076	     89.65652704	     -7.11514675	     25.14701011	     40.11989597	     33.41119759	      0.00000000	      0.00000000	     89.57941078	    -11.56761373	     25.67502576	     47.46180510	     34.37431035	      0.00000000	      0.00000000
